<mxfile host="app.diagrams.net" modified="2023-08-08T08:18:15.021Z" agent="Mozilla/5.0 (Windows NT 10.0; Win64; x64) AppleWebKit/537.36 (KHTML, like Gecko) Chrome/115.0.0.0 Safari/537.36 Edg/115.0.1901.188" etag="LVx8qq5cDLMqw0cZYQPq" version="21.6.6" type="github">
  <diagram name="Page-1" id="rynFHi4y_UhXfpccLdHf">
    <mxGraphModel dx="2350" dy="1873" grid="1" gridSize="10" guides="1" tooltips="1" connect="1" arrows="1" fold="1" page="1" pageScale="1" pageWidth="850" pageHeight="1100" math="0" shadow="0">
      <root>
        <mxCell id="0" />
        <mxCell id="1" parent="0" />
        <mxCell id="YbIFLUZ8MPUtyf5Cc5n3-25" value="" style="rounded=0;whiteSpace=wrap;html=1;fillColor=#ffe6cc;strokeColor=#d79b00;" vertex="1" parent="1">
          <mxGeometry x="270" y="100" width="910" height="400" as="geometry" />
        </mxCell>
        <mxCell id="YbIFLUZ8MPUtyf5Cc5n3-47" value="" style="rounded=1;whiteSpace=wrap;html=1;" vertex="1" parent="1">
          <mxGeometry x="920" y="130" width="220" height="340" as="geometry" />
        </mxCell>
        <mxCell id="YbIFLUZ8MPUtyf5Cc5n3-48" value="&lt;span style=&quot;font-size: 14px;&quot;&gt;Alpine: 10.1.1.104&lt;/span&gt;" style="text;html=1;strokeColor=none;fillColor=none;align=center;verticalAlign=middle;whiteSpace=wrap;rounded=0;" vertex="1" parent="1">
          <mxGeometry x="935" y="110" width="190" height="20" as="geometry" />
        </mxCell>
        <mxCell id="YbIFLUZ8MPUtyf5Cc5n3-26" value="" style="rounded=0;whiteSpace=wrap;html=1;fillColor=#d5e8d4;strokeColor=#82b366;" vertex="1" parent="1">
          <mxGeometry x="-140" y="100" width="410" height="400" as="geometry" />
        </mxCell>
        <mxCell id="YbIFLUZ8MPUtyf5Cc5n3-2" value="&lt;font style=&quot;font-size: 30px;&quot;&gt;&lt;b&gt;API&lt;/b&gt;&lt;/font&gt;" style="text;html=1;strokeColor=none;fillColor=none;align=center;verticalAlign=middle;whiteSpace=wrap;rounded=0;" vertex="1" parent="1">
          <mxGeometry x="420" y="-40" width="170" height="40" as="geometry" />
        </mxCell>
        <mxCell id="YbIFLUZ8MPUtyf5Cc5n3-4" value="" style="rounded=1;whiteSpace=wrap;html=1;" vertex="1" parent="1">
          <mxGeometry x="520" y="130" width="360" height="340" as="geometry" />
        </mxCell>
        <mxCell id="YbIFLUZ8MPUtyf5Cc5n3-5" value="Database&lt;br&gt;&lt;br&gt;sqlite" style="shape=cylinder3;whiteSpace=wrap;html=1;boundedLbl=1;backgroundOutline=1;size=15;" vertex="1" parent="1">
          <mxGeometry x="945" y="210" width="170" height="220" as="geometry" />
        </mxCell>
        <mxCell id="YbIFLUZ8MPUtyf5Cc5n3-7" value="" style="shape=internalStorage;whiteSpace=wrap;html=1;backgroundOutline=1;dx=10;dy=10;" vertex="1" parent="1">
          <mxGeometry x="660" y="280" width="80" height="80" as="geometry" />
        </mxCell>
        <mxCell id="YbIFLUZ8MPUtyf5Cc5n3-8" value="App" style="text;html=1;strokeColor=none;fillColor=none;align=center;verticalAlign=middle;whiteSpace=wrap;rounded=0;" vertex="1" parent="1">
          <mxGeometry x="670" y="250" width="60" height="30" as="geometry" />
        </mxCell>
        <mxCell id="YbIFLUZ8MPUtyf5Cc5n3-10" value="&lt;font style=&quot;font-size: 20px;&quot;&gt;PORT&lt;br&gt;8080&lt;/font&gt;" style="whiteSpace=wrap;html=1;aspect=fixed;" vertex="1" parent="1">
          <mxGeometry x="520" y="180" width="80" height="80" as="geometry" />
        </mxCell>
        <mxCell id="YbIFLUZ8MPUtyf5Cc5n3-11" value="" style="curved=1;endArrow=classic;html=1;rounded=0;exitX=1;exitY=0;exitDx=0;exitDy=0;entryX=1;entryY=0.5;entryDx=0;entryDy=0;fillColor=#d5e8d4;strokeColor=#82b366;" edge="1" parent="1" source="YbIFLUZ8MPUtyf5Cc5n3-7" target="YbIFLUZ8MPUtyf5Cc5n3-10">
          <mxGeometry width="50" height="50" relative="1" as="geometry">
            <mxPoint x="590" y="270" as="sourcePoint" />
            <mxPoint x="640" y="220" as="targetPoint" />
            <Array as="points">
              <mxPoint x="710" y="310" />
              <mxPoint x="690" y="250" />
            </Array>
          </mxGeometry>
        </mxCell>
        <mxCell id="YbIFLUZ8MPUtyf5Cc5n3-14" style="edgeStyle=orthogonalEdgeStyle;rounded=0;orthogonalLoop=1;jettySize=auto;html=1;entryX=0;entryY=0.25;entryDx=0;entryDy=0;" edge="1" parent="1" source="YbIFLUZ8MPUtyf5Cc5n3-12" target="YbIFLUZ8MPUtyf5Cc5n3-32">
          <mxGeometry relative="1" as="geometry">
            <mxPoint x="290" y="215" as="targetPoint" />
          </mxGeometry>
        </mxCell>
        <mxCell id="YbIFLUZ8MPUtyf5Cc5n3-12" value="" style="html=1;verticalLabelPosition=bottom;align=center;labelBackgroundColor=#ffffff;verticalAlign=top;strokeWidth=2;strokeColor=#0080F0;shadow=0;dashed=0;shape=mxgraph.ios7.icons.user;" vertex="1" parent="1">
          <mxGeometry x="-120" y="170" width="90" height="90" as="geometry" />
        </mxCell>
        <mxCell id="YbIFLUZ8MPUtyf5Cc5n3-13" value="&lt;font style=&quot;font-size: 18px;&quot;&gt;ToDo List&lt;/font&gt;" style="text;html=1;strokeColor=none;fillColor=none;align=center;verticalAlign=middle;whiteSpace=wrap;rounded=0;" vertex="1" parent="1">
          <mxGeometry x="620" y="130" width="160" height="30" as="geometry" />
        </mxCell>
        <mxCell id="YbIFLUZ8MPUtyf5Cc5n3-15" value="&lt;font style=&quot;font-size: 14px;&quot;&gt;API&lt;/font&gt;" style="text;html=1;strokeColor=none;fillColor=none;align=center;verticalAlign=middle;whiteSpace=wrap;rounded=0;" vertex="1" parent="1">
          <mxGeometry x="50" y="190" width="120" height="20" as="geometry" />
        </mxCell>
        <mxCell id="YbIFLUZ8MPUtyf5Cc5n3-19" value="" style="shape=internalStorage;whiteSpace=wrap;html=1;backgroundOutline=1;dx=15;dy=30;" vertex="1" parent="1">
          <mxGeometry x="-10" y="230" width="250" height="180" as="geometry" />
        </mxCell>
        <mxCell id="YbIFLUZ8MPUtyf5Cc5n3-20" value="&lt;span style=&quot;font-size: 14px;&quot;&gt;&lt;b&gt;API - REST&lt;/b&gt;&lt;/span&gt;" style="text;html=1;strokeColor=none;fillColor=none;align=center;verticalAlign=middle;whiteSpace=wrap;rounded=0;" vertex="1" parent="1">
          <mxGeometry x="65" y="240" width="100" height="20" as="geometry" />
        </mxCell>
        <mxCell id="YbIFLUZ8MPUtyf5Cc5n3-21" value="&lt;font style=&quot;font-size: 14px;&quot;&gt;POST&lt;br&gt;&lt;br&gt;GET&lt;br&gt;&lt;br&gt;PUT/PATCH&lt;br&gt;&lt;br&gt;DELETE&lt;br&gt;&lt;/font&gt;" style="text;html=1;strokeColor=none;fillColor=none;align=left;verticalAlign=middle;whiteSpace=wrap;rounded=0;" vertex="1" parent="1">
          <mxGeometry x="15" y="270" width="95" height="130" as="geometry" />
        </mxCell>
        <mxCell id="YbIFLUZ8MPUtyf5Cc5n3-22" value="&lt;font style=&quot;font-size: 14px;&quot;&gt;&lt;b&gt;C&lt;/b&gt;reate&lt;br&gt;&lt;br&gt;&lt;b&gt;R&lt;/b&gt;ead Data&lt;br style=&quot;border-color: var(--border-color);&quot;&gt;&lt;br&gt;&lt;b&gt;U&lt;/b&gt;pdate&lt;br&gt;&lt;br&gt;&lt;b&gt;D&lt;/b&gt;ELETE&lt;br&gt;&lt;/font&gt;" style="text;html=1;strokeColor=none;fillColor=none;align=left;verticalAlign=middle;whiteSpace=wrap;rounded=0;" vertex="1" parent="1">
          <mxGeometry x="125" y="270" width="80" height="130" as="geometry" />
        </mxCell>
        <mxCell id="YbIFLUZ8MPUtyf5Cc5n3-24" value="Python" style="text;html=1;strokeColor=none;fillColor=none;align=left;verticalAlign=middle;whiteSpace=wrap;rounded=0;" vertex="1" parent="1">
          <mxGeometry x="680" y="290" width="50" height="70" as="geometry" />
        </mxCell>
        <mxCell id="YbIFLUZ8MPUtyf5Cc5n3-27" value="" style="shape=flexArrow;endArrow=classic;startArrow=classic;html=1;rounded=0;" edge="1" parent="1">
          <mxGeometry width="100" height="100" relative="1" as="geometry">
            <mxPoint x="-2.8100000000000023" y="170" as="sourcePoint" />
            <mxPoint x="222.81" y="170" as="targetPoint" />
          </mxGeometry>
        </mxCell>
        <mxCell id="YbIFLUZ8MPUtyf5Cc5n3-29" value="&lt;font style=&quot;font-size: 14px;&quot;&gt;USER SIDE&lt;/font&gt;" style="text;html=1;strokeColor=none;fillColor=none;align=center;verticalAlign=middle;whiteSpace=wrap;rounded=0;" vertex="1" parent="1">
          <mxGeometry x="-10" y="80" width="120" height="20" as="geometry" />
        </mxCell>
        <mxCell id="YbIFLUZ8MPUtyf5Cc5n3-50" style="edgeStyle=orthogonalEdgeStyle;rounded=0;orthogonalLoop=1;jettySize=auto;html=1;exitX=0.5;exitY=1;exitDx=0;exitDy=0;entryX=0.471;entryY=-0.003;entryDx=0;entryDy=0;entryPerimeter=0;" edge="1" parent="1" source="YbIFLUZ8MPUtyf5Cc5n3-30" target="YbIFLUZ8MPUtyf5Cc5n3-25">
          <mxGeometry relative="1" as="geometry" />
        </mxCell>
        <mxCell id="YbIFLUZ8MPUtyf5Cc5n3-30" value="&lt;span style=&quot;font-size: 14px;&quot;&gt;Developer Side&lt;/span&gt;" style="text;html=1;strokeColor=none;fillColor=none;align=center;verticalAlign=middle;whiteSpace=wrap;rounded=0;" vertex="1" parent="1">
          <mxGeometry x="640" y="70" width="120" height="20" as="geometry" />
        </mxCell>
        <mxCell id="YbIFLUZ8MPUtyf5Cc5n3-40" style="edgeStyle=orthogonalEdgeStyle;rounded=0;orthogonalLoop=1;jettySize=auto;html=1;exitX=1;exitY=0.5;exitDx=0;exitDy=0;" edge="1" parent="1" source="YbIFLUZ8MPUtyf5Cc5n3-32" target="YbIFLUZ8MPUtyf5Cc5n3-39">
          <mxGeometry relative="1" as="geometry" />
        </mxCell>
        <mxCell id="YbIFLUZ8MPUtyf5Cc5n3-32" value="" style="rounded=1;whiteSpace=wrap;html=1;" vertex="1" parent="1">
          <mxGeometry x="310" y="130" width="140" height="340" as="geometry" />
        </mxCell>
        <mxCell id="YbIFLUZ8MPUtyf5Cc5n3-35" value="&lt;span style=&quot;font-size: 14px;&quot;&gt;CentOS : 10.1.1.103&lt;/span&gt;" style="text;html=1;strokeColor=none;fillColor=none;align=center;verticalAlign=middle;whiteSpace=wrap;rounded=0;" vertex="1" parent="1">
          <mxGeometry x="605" y="110" width="190" height="20" as="geometry" />
        </mxCell>
        <mxCell id="YbIFLUZ8MPUtyf5Cc5n3-37" value="&lt;span style=&quot;font-size: 14px;&quot;&gt;Ubuntu : 10.1.1.102&lt;/span&gt;" style="text;html=1;strokeColor=none;fillColor=none;align=center;verticalAlign=middle;whiteSpace=wrap;rounded=0;" vertex="1" parent="1">
          <mxGeometry x="285" y="110" width="190" height="20" as="geometry" />
        </mxCell>
        <mxCell id="YbIFLUZ8MPUtyf5Cc5n3-38" value="&lt;font style=&quot;font-size: 20px;&quot;&gt;PORT&lt;br&gt;80&lt;/font&gt;" style="whiteSpace=wrap;html=1;aspect=fixed;" vertex="1" parent="1">
          <mxGeometry x="310" y="175" width="80" height="80" as="geometry" />
        </mxCell>
        <mxCell id="YbIFLUZ8MPUtyf5Cc5n3-39" value="" style="rounded=1;whiteSpace=wrap;html=1;fillColor=#f8cecc;strokeColor=#b85450;" vertex="1" parent="1">
          <mxGeometry x="490" y="130" width="30" height="340" as="geometry" />
        </mxCell>
        <mxCell id="YbIFLUZ8MPUtyf5Cc5n3-42" value="" style="rounded=1;whiteSpace=wrap;html=1;fillColor=#f8cecc;strokeColor=#b85450;" vertex="1" parent="1">
          <mxGeometry x="880" y="220" width="40" height="200" as="geometry" />
        </mxCell>
        <mxCell id="YbIFLUZ8MPUtyf5Cc5n3-9" value="" style="shape=flexArrow;endArrow=classic;startArrow=classic;html=1;rounded=0;exitX=1;exitY=0.5;exitDx=0;exitDy=0;entryX=0;entryY=0.5;entryDx=0;entryDy=0;entryPerimeter=0;" edge="1" parent="1" source="YbIFLUZ8MPUtyf5Cc5n3-7" target="YbIFLUZ8MPUtyf5Cc5n3-5">
          <mxGeometry width="100" height="100" relative="1" as="geometry">
            <mxPoint x="670" y="400" as="sourcePoint" />
            <mxPoint x="770" y="300" as="targetPoint" />
          </mxGeometry>
        </mxCell>
        <mxCell id="YbIFLUZ8MPUtyf5Cc5n3-44" value="" style="shape=internalStorage;whiteSpace=wrap;html=1;backgroundOutline=1;dx=10;dy=10;" vertex="1" parent="1">
          <mxGeometry x="340" y="280" width="80" height="80" as="geometry" />
        </mxCell>
        <mxCell id="YbIFLUZ8MPUtyf5Cc5n3-45" value="Nginx" style="text;html=1;strokeColor=none;fillColor=none;align=left;verticalAlign=middle;whiteSpace=wrap;rounded=0;" vertex="1" parent="1">
          <mxGeometry x="360" y="290" width="50" height="70" as="geometry" />
        </mxCell>
      </root>
    </mxGraphModel>
  </diagram>
</mxfile>
